<svg
  width="100"
  viewBox="0 0 1500 750"
  xmlns="http://www.w3.org/2000/svg"
>
  <g fill="none" fillRule="evenodd">
    <path
      d="M1125 0c207.107 0 375 167.893 375 375s-167.893 375-375 375v2H375v-2C167.893 750 0 582.107 0 375 0 169.964 164.552 3.362 368.799.05L375 0z"
      fill="gold"
    />
    <path
      d="M255.012 579V187.7h144.781c31.304 0 57.204 5.217 77.701 15.652 20.497 10.435 35.776 24.782 45.838 43.043 10.062 18.26 15.093 38.757 15.093 61.49 0 21.615-4.845 41.46-14.534 59.534-9.69 18.074-24.782 32.608-45.279 43.602-20.497 10.993-46.77 16.49-78.819 16.49h-73.229V579h-71.552zm71.552-209.625h68.757c24.969 0 42.95-5.497 53.943-16.49 10.994-10.994 16.491-25.994 16.491-45 0-19.379-5.497-34.565-16.49-45.558-10.994-10.994-28.975-16.491-53.944-16.491h-68.757v123.539zM582.648 579V176.52H654.2v167.7c9.317-15.28 21.894-27.298 37.732-36.056 15.839-8.757 34.006-13.136 54.503-13.136 34.286 0 60.838 10.807 79.658 32.422 18.82 21.615 28.229 53.291 28.229 95.03V579h-70.993V429.188c0-23.85-4.751-42.111-14.255-54.782-9.503-12.67-24.502-19.006-44.999-19.006-20.124 0-36.8 7.08-50.03 21.242-13.23 14.161-19.845 33.913-19.845 59.254V579h-71.552zm368.443-320.307c-13.043 0-23.757-3.913-32.143-11.739-8.385-7.826-12.577-17.702-12.577-29.627 0-11.925 4.192-21.708 12.577-29.347 8.386-7.64 19.1-11.46 32.143-11.46s23.757 3.82 32.143 11.46c8.385 7.64 12.577 17.422 12.577 29.347s-4.192 21.801-12.577 29.627c-8.386 7.826-19.1 11.739-32.143 11.739zM915.315 579V301.736h71.552V579h-71.552zm136.458 0V176.52h71.552V579h-71.552zm165.526 3.913c-13.043 0-23.757-4.1-32.142-12.298-8.386-8.199-12.578-18.074-12.578-29.627 0-11.925 4.192-21.987 12.578-30.186 8.385-8.199 19.099-12.298 32.142-12.298 13.043 0 23.757 4.1 32.142 12.298 8.386 8.199 12.578 18.26 12.578 30.186 0 11.553-4.192 21.428-12.578 29.627-8.385 8.199-19.099 12.298-32.142 12.298z"
      fill="#000"
      fillRule="nonzero"
    />
  </g>
</svg>
